<?xml version="1.0" encoding="UTF-8"?><svg id="Layer_1" xmlns="http://www.w3.org/2000/svg" viewBox="0 0 283.46 50.97"><defs><style>.cls-1{fill:#231f20;}</style></defs><path class="cls-1" d="M88.18,42.8c0,.14,.07,.16,.16,.17,.28,.05,.85,.07,1.1,.07,.4,0,.8-.07,1.05-.28,.37-.3,.57-.91,.57-1.65,0-1.41-.7-2.6-2.07-2.6-.28,0-.49,.03-.63,.09-.1,.03-.17,.07-.17,.31v3.88Zm0,2.77c0,.84-.02,2.06,.03,2.94,.03,.56,.1,.78,.45,.96,.38,.23,.8,.28,1.15,.28,.91,0,1.99-.63,1.99-2.37,0-.91-.23-1.93-1.03-2.68-.47-.45-1.08-.63-1.62-.66-.28-.02-.7-.02-.87,0-.07,0-.1,.04-.1,.12v1.41Zm-3.01-2.96c0-2.56-.02-3.05-.03-3.61-.02-.71-.26-.99-.77-1.05-.21-.02-.45-.03-.64-.05-.26-.02-.31-.09-.31-.17,0-.14,.14-.17,.35-.17,1.06,0,1.93,.05,2.79,.05,1.15,0,2.18-.05,2.86-.05,3.67,0,4.37,1.71,4.37,2.68,0,1.41-.98,2.32-2.13,2.91,1.83,.56,3.38,1.67,3.38,3.78,0,1.93-1.81,3.85-5.28,3.85-.64,0-2.7-.11-3.22-.11-.77,0-1.58,.05-2.53,.05-.24,0-.37-.05-.37-.17s.09-.17,.35-.17c.23-.02,.38-.03,.52-.07,.31-.05,.5-.31,.56-.96,.07-.96,.1-1.97,.1-4.16v-2.58Zm13.34,0c0-2.7,0-3.21-.05-3.76-.03-.49-.23-.8-.61-.87-.12-.03-.3-.05-.52-.07-.21,0-.33-.07-.33-.19,0-.1,.09-.16,.38-.16,.7,0,2.4,.05,2.54,.05,.16,0,2.21-.05,2.84-.05,.3,0,.38,.07,.38,.17,0,.14-.16,.17-.33,.17-.17,.02-.28,.02-.5,.05-.45,.09-.63,.31-.66,.94-.05,.56-.05,1.01-.05,3.71v3.07c0,1.38,.02,3,.09,3.73,.03,.45,.14,.77,.66,.89,.23,.05,.54,.07,.77,.09,.3,0,.37,.07,.37,.17,0,.09-.09,.17-.37,.17-1.18,0-3.05-.05-3.2-.05-.09,0-1.92,.05-2.51,.05-.28,0-.42-.03-.42-.17,0-.12,.14-.17,.35-.17,.17-.02,.35-.03,.54-.07,.37-.05,.49-.44,.54-.94,.07-.73,.11-1.99,.11-3.69v-3.07Zm8.52-4.48c.02-.52,.09-.84,.3-.84,.14,0,.23,.05,.68,.42,.73,.61,1.64,1.48,5.63,5.14,1.78,1.64,2.98,2.8,3.45,3.22l-.11-6.53c-.03-.98-.12-1.43-.82-1.55-.24-.05-.52-.07-.77-.09-.23,0-.31-.09-.31-.17,0-.12,.16-.18,.35-.18,.7,0,1.83,.05,2.53,.05,.38,0,1.25-.05,1.99-.05,.26,0,.38,.05,.38,.16,0,.09-.09,.19-.3,.19-.23,.02-.31,.02-.44,.05-.58,.07-.75,.37-.8,1.45-.14,3.5-.14,6.99-.21,10.49,0,.89-.12,1.08-.35,1.08-.28,0-.82-.42-1.95-1.41-1.18-1.04-2.72-2.42-3.76-3.38-.97-.89-2.72-2.53-3.99-3.76l.17,5.94c.03,1.25,.11,1.72,.59,1.9,.26,.09,.58,.09,.92,.12,.26,.02,.35,.07,.35,.17,0,.14-.14,.17-.42,.17-.61,0-1.17-.03-2.25-.05-.4,0-1.69,.05-2.37,.05-.24,0-.38-.03-.38-.17,0-.1,.09-.17,.33-.17,.16-.02,.38-.02,.57-.05,.68-.1,.77-.54,.82-2.16,.09-3.59,.05-7.79,.16-10.03m28.13,10.92c0,1.03-.03,1.13-.35,1.25-.92,.37-2.7,.66-4.27,.66-4.89,0-8.29-2.19-8.29-6.83,0-2.91,1.52-4.76,3.14-5.68,1.8-1.06,3.68-1.15,5-1.15,1.06,0,2.07,.12,2.82,.24,.59,.07,1.17,.19,1.67,.21,.16,0,.19,.07,.17,.23-.03,.17-.19,.89-.19,3.21,0,.28-.07,.37-.19,.37s-.19-.14-.21-.28c-.03-.26-.03-.45-.21-.87-.33-1.18-1.88-2.02-4.3-2.02-1.29,0-2.33,.37-3.12,1.25-.68,.77-1.1,2.06-1.1,3.76,0,3.12,1.5,6.44,5.16,6.44,.24,0,.72-.02,.98-.21,.14-.1,.21-.26,.21-.47v-1.06c0-.72,0-1.39-.02-2.04,0-.99-.23-1.36-.82-1.45-.23-.03-.45-.05-.75-.09-.14,0-.28-.07-.28-.17s.09-.18,.37-.18c1.13,0,2.47,.05,2.94,.05,.63,0,1.76-.05,2.7-.05,.26,0,.4,.04,.4,.18,0,.12-.1,.16-.28,.17-.07,0-.3,.03-.47,.05-.42,.09-.61,.28-.66,.89-.03,.56-.05,1.46-.05,2.32v1.25Zm13.17-6.13c.05,0,.1-.03,.1-.12v-.37c0-2.7,0-3-.03-3.55-.03-.51-.17-.8-.75-.92-.14-.02-.4-.03-.61-.05-.24,0-.33-.1-.33-.17,0-.11,.09-.18,.35-.18,1.01,0,2.58,.05,2.75,.05,.16,0,2.16-.05,2.91-.05,.26,0,.35,.07,.35,.18,0,.09-.09,.17-.26,.17-.3,.03-.4,.03-.61,.07-.45,.07-.59,.37-.64,.92-.03,.56-.03,1.01-.03,3.71v3.07c0,1.66,0,2.94,.09,3.68,.05,.58,.19,.87,.71,.96,.24,.03,.59,.05,.77,.07,.21,0,.3,.09,.3,.17,0,.12-.14,.17-.35,.17-1.2,0-2.96-.05-3.27-.05-.28,0-1.64,.05-2.49,.05-.31,0-.38-.09-.38-.19,0-.09,.1-.16,.33-.16,.18-.02,.38-.03,.54-.07,.42-.09,.52-.42,.57-.98,.07-.73,.1-1.83,.1-3.48v-1.41c0-.07-.05-.11-.1-.11h-5.44c-.05,0-.1,.02-.1,.11v1.81c0,1.65,.02,2.37,.09,3.12,.05,.5,.21,.84,.73,.92,.37,.05,.54,.07,.73,.09,.19,0,.33,.05,.33,.17,0,.09-.09,.17-.35,.17-.99,0-3.05-.05-3.22-.05-.16,0-1.99,.05-2.54,.05-.19,0-.38-.03-.38-.16s.07-.19,.3-.19c.21-.02,.31-.03,.54-.07,.42-.05,.58-.51,.61-1.03,.05-.73,.09-1.95,.09-3.61v-3.03c0-2.7-.02-3.1-.05-3.66-.03-.61-.23-.94-.84-1.03-.21-.03-.3-.03-.49-.05-.31-.02-.35-.1-.35-.19,0-.12,.19-.16,.38-.16,1.01,0,2.35,.05,2.75,.05,.66,0,2.12-.05,2.87-.05,.31,0,.37,.07,.37,.18,0,.09-.11,.17-.31,.17-.21,.02-.44,.03-.61,.07-.47,.1-.56,.5-.59,1.01-.05,.56-.05,1.27-.05,3.45v.37c0,.09,.05,.12,.1,.12h5.44Zm13.29,2.8c.1,0,.1-.05,.09-.09l-1.53-3.73c-.05-.12-.09-.09-.12,0l-1.48,3.73c-.02,.05,.02,.09,.07,.09h2.98Zm-3.48,1.39c-.09,0-.12,.03-.16,.12l-.54,1.43c-.17,.45-.28,.91-.28,1.11,0,.33,.16,.49,.52,.52,.19,.03,.47,.05,.61,.07,.26,0,.31,.09,.31,.17,0,.14-.14,.17-.37,.17-.78,0-1.38-.05-2.3-.05-.19,0-1.34,.05-2.21,.05-.24,0-.35-.07-.35-.17,0-.14,.12-.17,.33-.17,.21-.02,.38-.03,.56-.07,.61-.12,.96-.66,1.32-1.5l4.65-10.52c.33-.75,.52-1.01,.71-1.01,.17,0,.33,.24,.63,.87,.45,.98,3.38,7.65,4.56,10.3,.59,1.36,.97,1.78,1.58,1.86,.19,.05,.4,.05,.56,.07,.23,0,.33,.07,.33,.17,0,.12-.12,.17-.45,.17-1.71,0-3.69-.03-4.81-.05-.28,0-.38-.05-.38-.16s.09-.17,.24-.21c.19-.03,.26-.16,.21-.31l-1.17-2.77c-.02-.07-.09-.1-.14-.1h-3.99Zm16.2-1.45c0,1.36,0,2.98,.09,3.71,.04,.45,.16,.82,.68,.91,.23,.03,.43,.05,.75,.09,.28,.02,.35,.07,.35,.19,0,.1-.09,.16-.4,.16-1.18,0-2.87-.05-3.15-.05-.3,0-1.99,.05-2.56,.05-.28,0-.4-.03-.4-.17,0-.12,.14-.17,.35-.17,.17-.02,.37-.03,.56-.07,.38-.07,.51-.45,.56-.96,.07-.73,.1-1.99,.1-3.68v-6.83c-.68,0-1.76-.02-2.63,.03-.97,.05-1.36,.28-1.59,.89-.09,.19-.12,.3-.16,.4-.03,.14-.09,.28-.21,.28-.16,0-.16-.14-.14-.35,.07-.71,.26-1.66,.38-2.32,.03-.26,.09-.44,.19-.44,.12,0,.19,.05,.59,.14,.31,.07,1.27,.12,1.93,.12h7.58c.54,0,.85-.03,1.1-.07,.28-.05,.42-.1,.54-.1,.16,0,.17,.1,.17,.54,0,.24-.1,1.86-.12,2.3-.02,.24-.07,.35-.17,.35-.14,0-.18-.1-.19-.31-.02-.19-.02-.26-.03-.35-.07-.54-.33-.96-1.36-1.03-.58-.05-1.48-.09-2.8-.09v6.83Zm14.06,0c0,1.36,0,2.98,.09,3.71,.03,.45,.16,.82,.68,.91,.23,.03,.44,.05,.75,.09,.28,.02,.35,.07,.35,.19,0,.1-.09,.16-.4,.16-1.18,0-2.87-.05-3.15-.05-.3,0-1.99,.05-2.56,.05-.28,0-.4-.03-.4-.17,0-.12,.14-.17,.35-.17,.17-.02,.37-.03,.56-.07,.38-.07,.51-.45,.56-.96,.07-.73,.11-1.99,.11-3.68v-6.83c-.68,0-1.76-.02-2.63,.03-.98,.05-1.36,.28-1.58,.89-.09,.19-.12,.3-.16,.4-.03,.14-.09,.28-.21,.28-.16,0-.16-.14-.14-.35,.07-.71,.26-1.66,.38-2.32,.03-.26,.09-.44,.19-.44,.12,0,.19,.05,.59,.14,.31,.07,1.27,.12,1.93,.12h7.58c.54,0,.85-.03,1.1-.07,.28-.05,.42-.1,.54-.1,.16,0,.17,.1,.17,.54,0,.24-.11,1.86-.12,2.3-.02,.24-.07,.35-.17,.35-.14,0-.17-.1-.19-.31-.02-.19-.02-.26-.04-.35-.07-.54-.33-.96-1.36-1.03-.58-.05-1.48-.09-2.8-.09v6.83Zm7.87-3.07c0-2.7,0-3.21-.05-3.76-.04-.49-.23-.8-.61-.87-.12-.03-.3-.05-.52-.07-.21,0-.33-.07-.33-.19,0-.1,.09-.16,.38-.16,.7,0,2.4,.05,2.54,.05,.16,0,2.21-.05,2.84-.05,.3,0,.38,.07,.38,.17,0,.14-.16,.17-.33,.17-.17,.02-.28,.02-.5,.05-.45,.09-.63,.31-.66,.94-.05,.56-.05,1.01-.05,3.71v3.07c0,1.38,.02,3,.09,3.73,.04,.45,.14,.77,.66,.89,.23,.05,.54,.07,.77,.09,.3,0,.37,.07,.37,.17,0,.09-.09,.17-.37,.17-1.19,0-3.05-.05-3.21-.05-.09,0-1.92,.05-2.51,.05-.28,0-.42-.03-.42-.17,0-.12,.14-.17,.35-.17,.17-.02,.35-.03,.54-.07,.37-.05,.49-.44,.54-.94,.07-.73,.1-1.99,.1-3.69v-3.07Z"/><path class="cls-1" d="M35.65,18.36v.64c-2.07-.14-2.4-.17-3.55-.17h-.22c-.92,0-1.87,.06-3.58,.17v-.64c1.98-.17,2.35-.39,2.26-2.29l-.5-13.47-6.01,15.98h-.45L17.66,2.57l-.5,13.41c-.08,2.07,.36,2.21,2.18,2.38v.64c-1.09-.08-2.07-.17-2.68-.17-.81,0-1.68,.08-2.65,.17v-.64c1.9-.17,2.26-.39,2.35-2.35l.47-12.88c.08-1.9-.28-2.13-2.04-2.26V.22c1.2,.08,1.98,.14,2.74,.14s1.4-.03,2.26-.08l5.06,13.86L30.09,.28c.7,.06,1.34,.08,2.07,.08,.64,0,1.45-.06,2.71-.14V.87c-1.73,.14-2.1,.36-2.01,2.26l.48,12.88c.08,1.96,.45,2.18,2.32,2.35"/><path class="cls-1" d="M48.17,14.64c-.2,2.68-2.21,4.58-5.14,4.58-4.16,0-6.06-3.05-6.06-6.82,0-4.25,2.74-6.82,5.92-6.82,2.96,0,5.22,2.32,5.22,6.2v.25h-8.41v.33c0,3.94,1.15,5.98,3.91,5.98,2.01,0,3.63-1.51,3.83-3.72h.73Zm-8.44-3.33h5.84c-.03-3.41-.98-5-2.74-5-1.95,0-2.93,1.82-3.1,5"/><path class="cls-1" d="M60.3,8.02c-.11,.98-.59,1.37-1.34,1.37-.87,0-1.37-.64-1.2-1.51,.11-.59,.06-1.31-.92-1.31-1.45,0-2.57,1.84-2.57,4.58v5c0,1.9,.36,2.1,2.32,2.24v.61c-1.2-.11-2.43-.17-3.38-.17h-.2c-.95,0-1.93,.06-3.07,.17v-.61c1.59-.14,1.84-.42,1.84-2.12v-7.63c0-1.79-.08-2.04-1.98-2.12v-.59c1.34-.03,2.43-.06,3.69-.2h.64v2.49c.59-1.65,1.76-2.63,3.52-2.63,2.07,0,2.82,1.2,2.65,2.43"/><path class="cls-1" d="M71.98,14.64c-.17,2.85-2.1,4.58-4.78,4.58-3.74,0-5.78-3.13-5.78-6.79,0-4.3,2.71-6.85,6.15-6.85,1.37,0,2.4,.5,3.13,1.17l.53-1.26h.47v4.75h-.53c-.5-2.65-1.56-3.94-3.49-3.94-2.43,0-3.55,2.46-3.55,6.04,0,3.86,1.06,6.01,3.63,6.01,1.73,0,3.3-1.34,3.49-3.72h.73Z"/><path class="cls-1" d="M85.14,14.64c-.2,2.68-2.21,4.58-5.14,4.58-4.16,0-6.06-3.05-6.06-6.82,0-4.25,2.74-6.82,5.92-6.82,2.96,0,5.22,2.32,5.22,6.2v.25h-8.41v.33c0,3.94,1.15,5.98,3.91,5.98,2.01,0,3.63-1.51,3.83-3.72h.73Zm-8.44-3.33h5.84c-.03-3.41-.98-5-2.74-5-1.96,0-2.93,1.82-3.1,5"/><path class="cls-1" d="M100.48,18.27v.59c-1.34,.03-2.43,.06-3.69,.2h-.64v-2.43c-.7,1.68-1.9,2.6-3.69,2.6-2.91,0-5.31-2.38-5.31-6.82s2.74-6.82,5.56-6.82c1.54,0,2.63,.75,3.3,2.15V2.91c0-1.79-.08-2.04-1.98-2.12V.2c1.34-.03,2.43-.06,3.69-.2h.78V16.15c0,1.79,.08,2.04,1.98,2.12m-4.39-5.92c0-4.16-1.29-6.04-3.21-6.04-2.04,0-2.99,2.18-2.99,6.04s1.03,6.01,3.1,6.01c1.87,0,3.1-1.84,3.1-6.01"/><path class="cls-1" d="M113.05,14.64c-.2,2.68-2.21,4.58-5.14,4.58-4.16,0-6.06-3.05-6.06-6.82,0-4.25,2.74-6.82,5.92-6.82,2.96,0,5.22,2.32,5.22,6.2v.25h-8.41v.33c0,3.94,1.15,5.98,3.91,5.98,2.01,0,3.63-1.51,3.83-3.72h.73Zm-8.44-3.33h5.84c-.03-3.41-.98-5-2.74-5-1.96,0-2.93,1.82-3.1,5"/><path class="cls-1" d="M124.59,15.37c0,2.71-2.29,3.86-4.58,3.86-1.59,0-2.85-.47-3.72-1.26l-.5,1.34h-.47v-4.75h.53c.33,2.37,1.82,3.94,4.08,3.94,1.9,0,2.82-.95,2.82-2.21,0-1.34-1.01-1.84-2.4-2.4l-2.04-.81c-1.87-.73-2.96-1.98-2.96-3.8,0-2.46,2.18-3.69,4.3-3.69,1.4,0,2.49,.47,3.21,1.12l.47-1.2h.42v4.19h-.53c-.39-1.84-1.43-3.38-3.55-3.38-1.54,0-2.49,.84-2.49,2.01,0,1.31,.87,1.87,2.37,2.49l2.01,.81c1.17,.48,3.02,1.4,3.02,3.74"/><rect class="cls-1" x="126.91" y="10.42" width="6.34" height="1.51"/><path class="cls-1" d="M149.88,13.92c0,3.07-2.63,5.03-6.29,5.03h-8.58v-.64c1.9-.09,2.24-.34,2.24-2.21V3.13c0-1.87-.33-2.12-2.24-2.21V.28h7.35c3.99,0,6.4,1.79,6.4,4.47,0,2.15-1.65,3.72-4.02,4.36v.03c3.02,.39,5.14,2.07,5.14,4.78m-9.86-12.83v7.8h1.76c2.88,0,4.16-1.28,4.16-3.91s-1.28-3.88-4.19-3.88h-1.73Zm6.87,12.83c0-2.79-1.34-4.22-4-4.22h-2.88v7.01c0,.92,.11,1.43,1.76,1.43h1.12c2.65,0,4-1.4,4-4.22"/><path class="cls-1" d="M163.32,14.64c-.2,2.68-2.21,4.58-5.14,4.58-4.16,0-6.06-3.05-6.06-6.82,0-4.25,2.74-6.82,5.92-6.82,2.96,0,5.22,2.32,5.22,6.2v.25h-8.41v.33c0,3.94,1.15,5.98,3.91,5.98,2.01,0,3.63-1.51,3.83-3.72h.73Zm-8.44-3.33h5.84c-.03-3.41-.98-5-2.74-5-1.96,0-2.93,1.82-3.1,5"/><path class="cls-1" d="M178.96,18.39v.61c-1.15-.11-2.12-.17-3.07-.17h-.08c-.87,0-1.87,.06-2.85,.17v-.61c1.37-.14,1.68-.34,1.68-2.12v-7.24c0-1.9-.73-2.57-2.07-2.57-1.7,0-3.16,1.48-3.16,3.52v6.29c0,1.79,.34,1.98,1.71,2.12v.61c-.98-.11-1.98-.17-2.85-.17h-.11c-.95,0-1.93,.06-3.07,.17v-.61c1.59-.14,1.84-.42,1.84-2.12v-7.63c0-1.79-.08-2.04-1.98-2.12v-.59c1.34-.03,2.43-.06,3.69-.19h.64v2.18c.62-1.4,2.01-2.32,3.86-2.32,2.57,0,4,1.59,4,4.28v6.4c0,1.7,.25,1.98,1.84,2.12"/><path class="cls-1" d="M190.64,14.84l-.87,4.11h-9.84v-.28l7.43-12.15h-2.35c-1.93,0-2.99,.5-3.91,3.21h-.62l.84-3.88h9.14v.31l-7.46,12.13h3.05c1.79,0,3.05-.53,3.97-3.44"/><path class="cls-1" d="M203.3,10.45v5.62c0,1.9,.36,2.12,2.68,2.29v.64c-2.01-.11-2.99-.17-3.88-.17h-.22c-1.15,0-1.48,.03-3.55,.17v-.64c1.87-.17,2.21-.39,2.21-2.35V3.13c0-1.87-.34-2.13-2.24-2.21V.28h7.49c4.83,0,7.21,1.87,7.21,5,0,3.41-2.93,5.23-7.15,5.23-.81,0-1.68,0-2.54-.06m0-9.36V9.61c.73,.08,1.45,.08,2.18,.08,3.24,0,4.55-1.51,4.55-4.3s-1.37-4.3-4.58-4.3h-2.15Z"/><path class="cls-1" d="M214.14,.81V.22c1.34-.03,2.43-.06,3.69-.2h.78V16.26c0,1.7,.25,1.98,1.84,2.12v.61c-1.15-.11-2.12-.17-3.07-.17h-.03c-.95,0-1.93,.06-3.07,.17v-.61c1.59-.14,1.84-.42,1.84-2.12V2.93c0-1.79-.08-2.04-1.98-2.12"/><path class="cls-1" d="M233.7,18.27v.56c-.42,.11-1.12,.28-1.96,.28-1.28,0-2.01-.64-2.01-1.93v-.53c-.59,1.73-1.98,2.57-3.77,2.57-2.63,0-4-1.51-4-3.66,0-2.79,1.56-3.6,4.72-4.28,1.2-.25,1.93-.42,2.65-.53v-1.98c0-1.76-.81-2.46-2.15-2.46-1.26,0-2.04,.67-2.04,2.4,0,.95-.53,1.29-1.23,1.29s-1.2-.39-1.2-1.15c0-1.79,2.07-3.27,4.53-3.27,2.99,0,4.58,1.68,4.58,4.02v7.1c0,1.26,.56,1.62,1.87,1.57m-4.36-3.49v-3.3c-.61,.11-1.2,.25-1.82,.39-2.35,.53-2.85,1.7-2.85,3.49,0,1.93,.84,2.77,2.1,2.77,1.4,0,2.57-1.17,2.57-3.35"/><path class="cls-1" d="M245.61,14.64c-.17,2.85-2.1,4.58-4.78,4.58-3.74,0-5.78-3.13-5.78-6.79,0-4.3,2.71-6.85,6.15-6.85,1.37,0,2.4,.5,3.13,1.17l.53-1.26h.47v4.75h-.53c-.5-2.65-1.56-3.94-3.49-3.94-2.43,0-3.55,2.46-3.55,6.04,0,3.86,1.06,6.01,3.63,6.01,1.73,0,3.3-1.34,3.49-3.72h.73Z"/><path class="cls-1" d="M258.77,14.64c-.2,2.68-2.21,4.58-5.14,4.58-4.16,0-6.06-3.05-6.06-6.82,0-4.25,2.74-6.82,5.92-6.82,2.96,0,5.22,2.32,5.22,6.2v.25h-8.41v.33c0,3.94,1.15,5.98,3.91,5.98,2.01,0,3.63-1.51,3.83-3.72h.73Zm-8.44-3.33h5.84c-.03-3.41-.98-5-2.74-5-1.96,0-2.93,1.82-3.1,5"/><path class="cls-1" d="M270.31,15.37c0,2.71-2.29,3.86-4.58,3.86-1.59,0-2.85-.47-3.72-1.26l-.5,1.34h-.48v-4.75h.53c.34,2.37,1.82,3.94,4.08,3.94,1.9,0,2.82-.95,2.82-2.21,0-1.34-1.01-1.84-2.4-2.4l-2.04-.81c-1.87-.73-2.96-1.98-2.96-3.8,0-2.46,2.18-3.69,4.3-3.69,1.4,0,2.49,.47,3.21,1.12l.47-1.2h.42v4.19h-.53c-.39-1.84-1.43-3.38-3.55-3.38-1.54,0-2.49,.84-2.49,2.01,0,1.31,.87,1.87,2.37,2.49l2.01,.81c1.17,.48,3.02,1.4,3.02,3.74"/><rect class="cls-1" y="27.81" width="283.46" height=".93"/></svg>